<svg id="Layer_1" data-name="Layer 1" xmlns="http://www.w3.org/2000/svg" viewBox="0 0 502.72 158.57"><defs><style>.cls-1,.cls-4,.cls-6,.cls-7{fill:none;}.cls-2{isolation:isolate;}.cls-3,.cls-5{fill:#fff;}.cls-4,.cls-7{stroke:#fff;}.cls-4,.cls-5,.cls-6,.cls-7{stroke-miterlimit:10;}.cls-4{stroke-width:10px;}.cls-5,.cls-6{stroke:#1c75bc;}.cls-7{stroke-width:0.5px;}</style></defs><g id="Layer_1-2" data-name="Layer 1"><rect class="cls-1" x="44.28" y="20.34" width="379.18" height="123.75"/><g class="cls-2"><g class="cls-2"><path class="cls-3" d="M178.91,386.05H198v44.81H178.91Zm22.14,44.81v-8.94h14.18V395H201.05v-8.95h21.84l11.5,8.95v26.92l-11.5,8.94Z" transform="translate(-32.45 -360.93)"/></g><g class="cls-2"><path class="cls-3" d="M250.7,430.86l-7.5-5.75v-8.4l6.42-5.18,6.93,6.31v6.33h7.1l5.85,5.41-1.92,1.28Zm-3-23.74,0,0v-5.2l7.61-5.88H262v9.11l11.77,10.67,10.13-6.15,7.33,6.62-10,6.33,9.15,8.27H274ZM284,401.84v4.62h-14V403h-5.72v-7h12.21Z" transform="translate(-32.45 -360.93)"/></g><g class="cls-2"><path class="cls-3" d="M299.21,386.05h19.12v44.81H299.21ZM335.54,395H321.35v-8.95h22.19L355,395v9.12l-5.75,4.49L355,413.1v8.82l-11.5,8.94H321.35v-8.94h14.19v-9.56H321.35v-7.8h14.19Z" transform="translate(-32.45 -360.93)"/></g><g class="cls-2"><path class="cls-3" d="M93.64,481.58V456.74L104.56,471v10.54Zm0-27.38h12.42l9.41,12.17,7.4-9.9v13.78l-8.43,11.33Zm31,27.38V454.2H136.3v27.38Z" transform="translate(-32.45 -360.93)"/><path class="cls-3" d="M158.79,468.83v3.8h-6v3.84h6v2.41l-3.49,2.7h-8.93L141.66,478v-5.49l4.71-3.65Zm1.85,12.75V465.13H144v-2.72l3.51-2.74h17.52l7,5.46v16.45Z" transform="translate(-32.45 -360.93)"/><path class="cls-3" d="M188.76,481.58h-4.68l-7-5.46v-11l7-5.46h4.68Zm1.85-16.45v-5.46h9.85l7,5.46v3.29H195.79v-3.29Zm0,16.45v-5.11h5.18v-2.75h11.68v2.4l-7,5.46Z" transform="translate(-32.45 -360.93)"/><path class="cls-3" d="M212.28,451.31H224v30.27H212.28ZM231,465.13h-5.15v-2.76l3.43-2.7h6.4l7,5.46v16.45H231Z" transform="translate(-32.45 -360.93)"/><path class="cls-3" d="M248,451.31h11.7v5.82H248Zm0,8.36h11.7v21.91H248Z" transform="translate(-32.45 -360.93)"/><path class="cls-3" d="M265.19,481.58V459.67H277v21.91Zm18.71-16.45h-5v-2.39l3.91-3.07h6.5l6.31,4.93v17H283.9Z" transform="translate(-32.45 -360.93)"/><path class="cls-3" d="M312.46,481.58h-4.67l-7-5.46v-11l7-5.46h4.67Zm1.85-8.79V469h6.16v-3.84h-6.16v-5.46h9.91l7,5.46v7.66Zm0,8.79v-5.11H330v2.37l-3.49,2.74Z" transform="translate(-32.45 -360.93)"/><path class="cls-3" d="M350,475.74h3.51V460H350V454.2h18.71V460h-3.52v15.72h3.52v5.84H350Z" transform="translate(-32.45 -360.93)"/><path class="cls-3" d="M374,481.58V459.67h11.79v21.91Zm18.71-16.45h-5v-2.39l3.91-3.07h6.5l6.32,4.93v17H392.75Z" transform="translate(-32.45 -360.93)"/><path class="cls-3" d="M421.32,481.58h-4.68l-7-5.46v-11l7-5.46h4.68Zm1.85-16.45v-5.46H433l7,5.46v3.29H428.35v-3.29Zm0,16.45v-5.11h5.18v-2.75H440v2.4l-7,5.46Z" transform="translate(-32.45 -360.93)"/></g></g><line class="cls-4" x1="5" y1="3.57" x2="5" y2="153.57"/><line class="cls-4" x1="2.72" y1="5" x2="466.22" y2="5"/><line class="cls-4" x1="2.72" y1="153.57" x2="466.22" y2="153.57"/><rect class="cls-3" x="451.22" y="95.18" width="22.44" height="12.38"/><rect class="cls-3" x="422.16" y="54.35" width="80.56" height="14.42"/><rect class="cls-3" x="446.61" y="73.46" width="31.66" height="17.5"/><rect class="cls-5" x="441.5" y="101.37" width="42.49" height="13.06"/><line class="cls-1" x1="448.3" y1="114.44" x2="448.3" y2="107.9"/><line class="cls-6" x1="451.94" y1="115.31" x2="451.94" y2="108.78"/><line class="cls-1" x1="476.98" y1="117.7" x2="476.98" y2="111.17"/><rect class="cls-5" x="457.15" y="115.53" width="12.14" height="32.45"/><line class="cls-6" x1="456.68" y1="125.17" x2="468.82" y2="119.57"/><line class="cls-6" x1="456.68" y1="134.79" x2="468.82" y2="128.03"/><line class="cls-6" x1="455.58" y1="143.89" x2="467.72" y2="138.17"/><line class="cls-7" x1="473.98" y1="146.55" x2="494.44" y2="109.62"/><line class="cls-7" x1="484.21" y1="146.36" x2="500.45" y2="123.41"/><line class="cls-7" x1="452.09" y1="145.6" x2="430.13" y2="111.17"/><line class="cls-7" x1="441.78" y1="146.04" x2="424.12" y2="123.69"/><line class="cls-6" x1="463.22" y1="115.31" x2="463.22" y2="108.78"/><line class="cls-6" x1="474.93" y1="115.31" x2="474.93" y2="108.78"/></g></svg>