<?xml version="1.0" encoding="utf-8"?>
<!-- Generator: Adobe Illustrator 25.1.0, SVG Export Plug-In . SVG Version: 6.00 Build 0)  -->
<svg version="1.1" xmlns="http://www.w3.org/2000/svg" xmlns:xlink="http://www.w3.org/1999/xlink" x="0px" y="0px"
	 viewBox="0 0 288 560" style="enable-background:new 0 0 288 560;" xml:space="preserve">
<style type="text/css">
	.st0{fill:#0071BC;}
	.st1{fill:#FFFFFF;stroke:#FFFFFF;stroke-width:0.5;stroke-miterlimit:10;}
	.st2{fill:none;stroke:#FFFFFF;stroke-width:0.5;stroke-miterlimit:10;}
	.st3{fill:#FFFFFF;}
	.st4{fill:none;stroke:#0071BC;stroke-width:0.5;stroke-miterlimit:10;}
</style>
<g id="Layer_2">
	<rect x="125.61" y="247.45" class="st0" width="48.44" height="55.26"/>
	<line class="st1" x1="154.78" y1="298.59" x2="162.93" y2="281.23"/>
	<line class="st2" x1="145.3" y1="298.59" x2="136.85" y2="281.23"/>
	<line class="st2" x1="157.94" y1="298.59" x2="162.93" y2="289.91"/>
	<line class="st2" x1="141.72" y1="298.59" x2="136.26" y2="289.91"/>
</g>
<g id="Layer_1">
	<rect x="130.33" y="250.11" class="st3" width="39.11" height="10"/>
	<rect x="137.89" y="261.44" class="st3" width="24" height="10.78"/>
	<rect x="141.72" y="273.75" class="st3" width="16.22" height="2.67"/>
	<rect x="139" y="277.94" class="st3" width="21.78" height="4.11"/>
	<g>
		<g>
			<rect x="147.85" y="283.15" class="st3" width="4" height="17.56"/>
			<line class="st4" x1="147.82" y1="285.91" x2="151.84" y2="284.21"/>
			<line class="st4" x1="147.82" y1="289.44" x2="151.84" y2="287.75"/>
			<line class="st4" x1="147.82" y1="296.11" x2="151.84" y2="294.41"/>
			<line class="st4" x1="147.84" y1="299.44" x2="151.86" y2="297.75"/>
		</g>
		<line class="st4" x1="147.94" y1="292.73" x2="151.96" y2="291.03"/>
	</g>
	<line class="st4" x1="149.83" y1="282.06" x2="149.83" y2="280.41"/>
	<line class="st4" x1="156.26" y1="282.06" x2="156.26" y2="280.41"/>
	<line class="st4" x1="144" y1="282.06" x2="144" y2="280.41"/>
</g>
</svg>
